<svg xmlns="http://www.w3.org/2000/svg" width="16" height="16" viewBox="0 0 16 16" fill="none">
  <path d="M14 5.3335C13.0334 5.3335 12.4934 6.2935 12.7134 7.00683L10.3467 9.38016C10.1467 9.32016 9.85335 9.32016 9.65335 9.38016L7.95335 7.68016C8.18002 6.96683 7.64002 6.00016 6.66669 6.00016C5.70002 6.00016 5.15335 6.96016 5.38002 7.68016L2.34002 10.7135C1.62669 10.4935 0.666687 11.0335 0.666687 12.0002C0.666687 12.7335 1.26669 13.3335 2.00002 13.3335C2.96669 13.3335 3.50669 12.3735 3.28669 11.6602L6.32002 8.62016C6.52002 8.68016 6.81335 8.68016 7.01335 8.62016L8.71335 10.3202C8.48669 11.0335 9.02669 12.0002 10 12.0002C10.9667 12.0002 11.5134 11.0402 11.2867 10.3202L13.66 7.9535C14.3734 8.1735 15.3334 7.6335 15.3334 6.66683C15.3334 5.9335 14.7334 5.3335 14 5.3335Z" fill="url(#paint0_linear_545_6)"/>
  <path d="M10 6L10.6267 4.62L12 4L10.6267 3.38L10 2L9.38669 3.38L8.00002 4L9.38669 4.62L10 6ZM2.33335 7.33333L2.66669 6L4.00002 5.66667L2.66669 5.33333L2.33335 4L2.00002 5.33333L0.666687 5.66667L2.00002 6L2.33335 7.33333Z" fill="url(#paint1_linear_545_6)"/>
  <defs>
    <linearGradient id="paint0_linear_545_6" x1="8.00002" y1="5.3335" x2="8.00002" y2="13.3335" gradientUnits="userSpaceOnUse">
      <stop stop-color="#EE9AE5"/>
      <stop offset="1" stop-color="#5961F9"/>
    </linearGradient>
    <linearGradient id="paint1_linear_545_6" x1="6.33335" y1="2" x2="6.33335" y2="7.33333" gradientUnits="userSpaceOnUse">
      <stop stop-color="#EE9AE5"/>
      <stop offset="1" stop-color="#5961F9"/>
    </linearGradient>
  </defs>
</svg>