<svg xmlns="http://www.w3.org/2000/svg" width="20" height="20" viewBox="0 0 20 20" fill="none">
  <path d="M17.5 6.6665C16.2916 6.6665 15.6166 7.8665 15.8916 8.75817L12.9333 11.7248C12.6833 11.6498 12.3166 11.6498 12.0666 11.7248L9.94165 9.59984C10.225 8.70817 9.54998 7.49984 8.33331 7.49984C7.12498 7.49984 6.44165 8.69984 6.72498 9.59984L2.92498 13.3915C2.03331 13.1165 0.833313 13.7915 0.833313 14.9998C0.833313 15.9165 1.58331 16.6665 2.49998 16.6665C3.70831 16.6665 4.38331 15.4665 4.10831 14.5748L7.89998 10.7748C8.14998 10.8498 8.51665 10.8498 8.76665 10.7748L10.8916 12.8998C10.6083 13.7915 11.2833 14.9998 12.5 14.9998C13.7083 14.9998 14.3916 13.7998 14.1083 12.8998L17.075 9.9415C17.9666 10.2165 19.1666 9.5415 19.1666 8.33317C19.1666 7.4165 18.4166 6.6665 17.5 6.6665Z" fill="url(#paint0_linear_514_1592)"/>
  <path d="M12.5 7.5L13.2833 5.775L15 5L13.2833 4.225L12.5 2.5L11.7333 4.225L9.99998 5L11.7333 5.775L12.5 7.5ZM2.91665 9.16667L3.33331 7.5L4.99998 7.08333L3.33331 6.66667L2.91665 5L2.49998 6.66667L0.833313 7.08333L2.49998 7.5L2.91665 9.16667Z" fill="url(#paint1_linear_514_1592)"/>
  <defs>
    <linearGradient id="paint0_linear_514_1592" x1="9.99998" y1="6.6665" x2="9.99998" y2="16.6665" gradientUnits="userSpaceOnUse">
      <stop stop-color="#EE9AE5"/>
      <stop offset="1" stop-color="#5961F9"/>
    </linearGradient>
    <linearGradient id="paint1_linear_514_1592" x1="7.91665" y1="2.5" x2="7.91665" y2="9.16667" gradientUnits="userSpaceOnUse">
      <stop stop-color="#EE9AE5"/>
      <stop offset="1" stop-color="#5961F9"/>
    </linearGradient>
  </defs>
</svg>