<svg xmlns="http://www.w3.org/2000/svg" width="20" height="20" viewBox="0 0 20 20" fill="none">
  <path d="M5.85402 4.35414C5.90051 4.30766 5.93739 4.25247 5.96254 4.19173C5.9877 4.13099 6.00065 4.06589 6.00065 4.00014C6.00065 3.9344 5.9877 3.8693 5.96254 3.80856C5.93739 3.74782 5.90051 3.69263 5.85402 3.64614C5.80753 3.59966 5.75234 3.56278 5.6916 3.53762C5.63087 3.51246 5.56577 3.49951 5.50002 3.49951C5.43428 3.49951 5.36918 3.51246 5.30844 3.53762C5.2477 3.56278 5.19251 3.59966 5.14602 3.64614L3.50002 5.29314L2.85402 4.64614C2.76013 4.55226 2.6328 4.49951 2.50002 4.49951C2.36725 4.49951 2.23991 4.55226 2.14602 4.64614C2.05213 4.74003 1.99939 4.86737 1.99939 5.00014C1.99939 5.06589 2.01234 5.13099 2.0375 5.19173C2.06266 5.25247 2.09953 5.30766 2.14602 5.35414L3.14602 6.35414C3.19247 6.40071 3.24764 6.43765 3.30839 6.46286C3.36913 6.48806 3.43425 6.50104 3.50002 6.50104C3.56579 6.50104 3.63091 6.48806 3.69165 6.46286C3.7524 6.43765 3.80758 6.40071 3.85402 6.35414L5.85402 4.35414ZM8.75002 4.50014C8.55111 4.50014 8.36034 4.57916 8.21969 4.71981C8.07904 4.86047 8.00002 5.05123 8.00002 5.25014C8.00002 5.44906 8.07904 5.63982 8.21969 5.78047C8.36034 5.92113 8.55111 6.00014 8.75002 6.00014H17.25C17.4489 6.00014 17.6397 5.92113 17.7804 5.78047C17.921 5.63982 18 5.44906 18 5.25014C18 5.05123 17.921 4.86047 17.7804 4.71981C17.6397 4.57916 17.4489 4.50014 17.25 4.50014H8.75002ZM8.75002 9.50014C8.55111 9.50014 8.36034 9.57916 8.21969 9.71981C8.07904 9.86047 8.00002 10.0512 8.00002 10.2501C8.00002 10.4491 8.07904 10.6398 8.21969 10.7805C8.36034 10.9211 8.55111 11.0001 8.75002 11.0001H17.25C17.4489 11.0001 17.6397 10.9211 17.7804 10.7805C17.921 10.6398 18 10.4491 18 10.2501C18 10.0512 17.921 9.86047 17.7804 9.71981C17.6397 9.57916 17.4489 9.50014 17.25 9.50014H8.75002ZM8.00002 15.2501C8.00002 15.0512 8.07904 14.8605 8.21969 14.7198C8.36034 14.5792 8.55111 14.5001 8.75002 14.5001H17.25C17.4489 14.5001 17.6397 14.5792 17.7804 14.7198C17.921 14.8605 18 15.0512 18 15.2501C18 15.4491 17.921 15.6398 17.7804 15.7805C17.6397 15.9211 17.4489 16.0001 17.25 16.0001H8.75002C8.55111 16.0001 8.36034 15.9211 8.21969 15.7805C8.07904 15.6398 8.00002 15.4491 8.00002 15.2501ZM5.85402 9.85414C5.94791 9.76026 6.00065 9.63292 6.00065 9.50014C6.00065 9.36737 5.94791 9.24003 5.85402 9.14614C5.76013 9.05226 5.6328 8.99951 5.50002 8.99951C5.36725 8.99951 5.23991 9.05226 5.14602 9.14614L3.50002 10.7931L2.85402 10.1461C2.76013 10.0523 2.6328 9.99951 2.50002 9.99951C2.36725 9.99951 2.23991 10.0523 2.14602 10.1461C2.05213 10.24 1.99939 10.3674 1.99939 10.5001C1.99939 10.6329 2.05213 10.7603 2.14602 10.8541L3.14602 11.8541C3.19247 11.9007 3.24764 11.9376 3.30839 11.9629C3.36913 11.9881 3.43425 12.001 3.50002 12.001C3.56579 12.001 3.63091 11.9881 3.69165 11.9629C3.7524 11.9376 3.80758 11.9007 3.85402 11.8541L5.85402 9.85414ZM5.85402 14.1461C5.90058 14.1926 5.93753 14.2478 5.96273 14.3085C5.98794 14.3693 6.00091 14.4344 6.00091 14.5001C6.00091 14.5659 5.98794 14.631 5.96273 14.6918C5.93753 14.7525 5.90058 14.8077 5.85402 14.8541L3.85402 16.8541C3.80758 16.9007 3.7524 16.9376 3.69165 16.9629C3.63091 16.9881 3.56579 17.001 3.50002 17.001C3.43425 17.001 3.36913 16.9881 3.30839 16.9629C3.24764 16.9376 3.19247 16.9007 3.14602 16.8541L2.14602 15.8541C2.05213 15.7603 1.99939 15.6329 1.99939 15.5001C1.99939 15.3674 2.05213 15.24 2.14602 15.1461C2.23991 15.0523 2.36725 14.9995 2.50002 14.9995C2.6328 14.9995 2.76013 15.0523 2.85402 15.1461L3.50002 15.7931L5.14602 14.1461C5.19247 14.0996 5.24764 14.0626 5.30839 14.0374C5.36913 14.0122 5.43425 13.9992 5.50002 13.9992C5.56579 13.9992 5.63091 14.0122 5.69165 14.0374C5.7524 14.0626 5.80758 14.0996 5.85402 14.1461Z" fill="url(#paint0_linear_545_9)"/>
  <defs>
    <linearGradient id="paint0_linear_545_9" x1="9.99971" y1="3.49951" x2="9.99971" y2="17.001" gradientUnits="userSpaceOnUse">
      <stop stop-color="#EE9AE5"/>
      <stop offset="1" stop-color="#5961F9"/>
    </linearGradient>
  </defs>
</svg>