<svg xmlns="http://www.w3.org/2000/svg" width="20" height="20" viewBox="0 0 20 20" fill="none">
  <path d="M18.0394 2.10182C18.0328 2.06977 18.0171 2.04027 17.9943 2.01681C17.9715 1.99335 17.9424 1.97691 17.9105 1.9694C15.7863 1.44987 10.8793 3.30104 8.21795 5.96042C7.74364 6.43083 7.31115 6.94161 6.92537 7.48698C6.10506 7.41276 5.28475 7.47526 4.58631 7.77995C2.61405 8.64714 2.04022 10.912 1.88006 11.8842C1.87138 11.9375 1.87509 11.9921 1.89089 12.0437C1.9067 12.0953 1.93417 12.1426 1.97119 12.1819C2.0082 12.2211 2.05377 12.2514 2.10435 12.2702C2.15494 12.2891 2.20918 12.296 2.26287 12.2905L5.42967 11.9428C5.43186 12.1817 5.4462 12.4203 5.47264 12.6577C5.48917 12.8218 5.56238 12.975 5.67967 13.0909L6.90584 14.3171C7.02187 14.4344 7.17521 14.5077 7.33944 14.5241C7.57541 14.5504 7.81256 14.5647 8.04998 14.5671L7.70272 17.7311C7.6973 17.7847 7.70428 17.8389 7.72312 17.8894C7.74197 17.9399 7.77217 17.9854 7.8114 18.0224C7.85063 18.0593 7.89783 18.0868 7.94936 18.1026C8.00089 18.1184 8.05537 18.1221 8.10858 18.1135C9.08123 17.9573 11.3508 17.3835 12.2129 15.4116C12.5176 14.7124 12.5801 13.8964 12.5097 13.0799C13.0567 12.6945 13.569 12.262 14.0406 11.7874C16.7117 9.13112 18.5512 4.3319 18.0394 2.10182ZM11.6664 8.34635C11.4331 8.1131 11.2742 7.8159 11.2098 7.49233C11.1454 7.16877 11.1784 6.83338 11.3046 6.52857C11.4309 6.22377 11.6447 5.96324 11.919 5.77995C12.1933 5.59665 12.5158 5.49882 12.8457 5.49882C13.1756 5.49882 13.4981 5.59665 13.7724 5.77995C14.0467 5.96324 14.2605 6.22377 14.3867 6.52857C14.513 6.83338 14.546 7.16877 14.4816 7.49233C14.4172 7.8159 14.2583 8.1131 14.025 8.34635C13.8702 8.50143 13.6864 8.62447 13.4841 8.70841C13.2817 8.79236 13.0648 8.83557 12.8457 8.83557C12.6266 8.83557 12.4097 8.79236 12.2073 8.70841C12.005 8.62447 11.8211 8.50143 11.6664 8.34635Z" stroke="url(#paint0_linear_514_1602)" stroke-width="1.25" stroke-linecap="round" stroke-linejoin="round"/>
  <path d="M4.28281 13.75C3.8934 13.7978 3.53113 13.9743 3.25352 14.2516C2.56523 14.9422 2.5 17.5 2.5 17.5C2.5 17.5 5.05937 17.4348 5.74805 16.7457C6.0264 16.4685 6.20323 16.1056 6.25 15.7156" stroke="url(#paint1_linear_514_1602)" stroke-width="1.25" stroke-linecap="round" stroke-linejoin="round"/>
  <defs>
    <linearGradient id="paint0_linear_514_1602" x1="10.0003" y1="1.88184" x2="10.0003" y2="18.118" gradientUnits="userSpaceOnUse">
      <stop stop-color="#EE9AE5"/>
      <stop offset="1" stop-color="#5961F9"/>
    </linearGradient>
    <linearGradient id="paint1_linear_514_1602" x1="4.375" y1="13.75" x2="4.375" y2="17.5" gradientUnits="userSpaceOnUse">
      <stop stop-color="#EE9AE5"/>
      <stop offset="1" stop-color="#5961F9"/>
    </linearGradient>
  </defs>
</svg>