<svg xmlns="http://www.w3.org/2000/svg" width="20" height="20" viewBox="0 0 20 20" fill="none">
  <g clip-path="url(#clip0_545_20)">
    <path d="M10 18.3332C14.6024 18.3332 18.3334 14.6022 18.3334 9.99984C18.3334 5.39746 14.6024 1.6665 10 1.6665C5.39765 1.6665 1.66669 5.39746 1.66669 9.99984C1.66669 14.6022 5.39765 18.3332 10 18.3332Z" stroke="url(#paint0_linear_545_20)" stroke-width="1.5"/>
    <path d="M8.4375 7.39579C8.43754 7.12215 8.50943 6.85333 8.64599 6.61621C8.78255 6.37909 8.97899 6.18199 9.21565 6.04463C9.45231 5.90727 9.72089 5.83447 9.99452 5.83351C10.2682 5.83255 10.5372 5.90346 10.7749 6.03916C11.0125 6.17486 11.2103 6.37057 11.3485 6.60673C11.4867 6.84289 11.5605 7.11121 11.5625 7.38483C11.5644 7.65846 11.4945 7.9278 11.3596 8.16591C11.2248 8.40402 11.0298 8.60254 10.7942 8.74162C10.3983 8.97579 10 9.33162 10 9.79162V10.8333" stroke="url(#paint1_linear_545_20)" stroke-width="1.5" stroke-linecap="round"/>
    <path d="M10 14.1667C10.4603 14.1667 10.8334 13.7936 10.8334 13.3333C10.8334 12.8731 10.4603 12.5 10 12.5C9.53978 12.5 9.16669 12.8731 9.16669 13.3333C9.16669 13.7936 9.53978 14.1667 10 14.1667Z" fill="url(#paint2_linear_545_20)"/>
  </g>
  <defs>
    <linearGradient id="paint0_linear_545_20" x1="10" y1="1.6665" x2="10" y2="18.3332" gradientUnits="userSpaceOnUse">
      <stop stop-color="#EE9AE5"/>
      <stop offset="1" stop-color="#5961F9"/>
    </linearGradient>
    <linearGradient id="paint1_linear_545_20" x1="10" y1="5.8335" x2="10" y2="10.8333" gradientUnits="userSpaceOnUse">
      <stop stop-color="#EE9AE5"/>
      <stop offset="1" stop-color="#5961F9"/>
    </linearGradient>
    <linearGradient id="paint2_linear_545_20" x1="10" y1="12.5" x2="10" y2="14.1667" gradientUnits="userSpaceOnUse">
      <stop stop-color="#EE9AE5"/>
      <stop offset="1" stop-color="#5961F9"/>
    </linearGradient>
    <clipPath id="clip0_545_20">
      <rect width="20" height="20" fill="white"/>
    </clipPath>
  </defs>
</svg>